<?xml version="1.0" encoding="iso-8859-1"?>
<!-- Uploaded to: SVG Repo, www.svgrepo.com, Generator: SVG Repo Mixer Tools -->
<svg height="800px" width="800px" version="1.1" id="Capa_1" xmlns="http://www.w3.org/2000/svg" xmlns:xlink="http://www.w3.org/1999/xlink" 
	 viewBox="0 0 26 26" xml:space="preserve">
<g>
	<g>
		<path style="fill:#030104;" d="M14.645,15.839c-0.073-0.024-0.537-0.233-0.247-1.114h-0.004c0.755-0.778,1.498-2.03,1.498-3.264
			c0-1.896-1.427-2.889-2.892-2.889s-2.899,0.993-2.899,2.889c0,1.238,0.755,2.495,1.515,3.271c0.296,0.777-0.233,1.065-0.344,1.106
			c-1.535,0.555-3.204,1.566-3.204,2.564c0,0.27,0,0.106,0,0.374c0,1.36,2.507,1.67,4.947,1.67c2.444,0,4.909-0.31,4.909-1.67
			c0-0.268,0-0.104,0-0.374C17.924,17.375,16.254,16.371,14.645,15.839z"/>
	</g>
	<path style="fill:#030104;" d="M23,4.5H3c-1.656,0-3,1.344-3,3v14c0,1.656,1.344,3,3,3h20c1.656,0,3-1.344,3-3v-14
		C26,5.844,24.656,4.5,23,4.5z M24,21.5c0,0.552-0.448,1-1,1H3c-0.552,0-1-0.448-1-1v-14c0-0.552,0.448-1,1-1h20
		c0.552,0,1,0.448,1,1V21.5z"/>
	<path style="fill:#030104;" d="M8,1.5H3c-1.656,0-3,1.344-3,3v4c0,0,0.302-3,3-3h8v-1C11,2.844,9.656,1.5,8,1.5z"/>
</g>
</svg>